<svg id="svg-logo-mcmcarthy" xmlns="http://www.w3.org/2000/svg" xmlns:xlink="http://www.w3.org/1999/xlink" x="0px" y="0px" viewBox="0 0 595 214" style="enable-background:new 0 0 595 214;" xml:space="preserve">
      <g id="first_line" class="first-line">
        <polygon points="575.6,30.2 555.5,80.2 535.6,30.2 516.4,30.2 546.3,103 533.4,135 552.8,135 595,30.2   "></polygon>
        <path d="M315.4,36.2c-5.3-5.7-13.1-8.7-24.2-8.7c-20.6,0-30.5,13.1-31.1,13.9l9.6,10.8c1.1-1.1,8.9-9.6,20.4-9.6
          c9,0,15.8,3.8,15.8,15v0.9h-16.8c-8.5,0-18.3,1.6-25.7,9.3c-3.4,3.6-5.9,8.5-5.9,15.8c0,16.6,12.2,24.2,25.4,24.2
          c14.7,0,21.8-8.3,23.7-10.6l0.4,8.5h16.2V66.1C323.2,53.3,322.8,44,315.4,36.2z M300.9,88.4c-3,3-7.3,5.2-14,5.2
          c-6.6,0-11.9-3.3-11.9-10.4c0-4.8,2.1-7.6,5.2-9.3c4.3-2.3,10.4-2.4,15.1-2.4h10.5v5h0.1C305.5,82.2,303.6,85.8,300.9,88.4z"></path>
        <path d="M468.8,38.5V0h-18v105.7h18v-34c0-9.2,0.1-17.5,5.1-22.8c4.8-5.1,13.5-7.2,19.4-1.4c3.9,3.3,4.4,9,4.4,15.7v42.5h18V60
          c0-8.5-0.9-17.9-7.1-24.5C497.5,23.9,479.4,25.3,468.8,38.5z"></path>
        <path d="M351,73.3c0-7.1,0.6-15.3,7.2-21.7c6.3-6.2,16.2-5.7,19.4-5.4V28.9c-8.9-0.5-21.3,3.7-27.3,14.4L350,30.2h-17v75.6h18V73.3
          z"></path>
        <path d="M224.6,43.1c11.9,0,18.5,8.5,19.7,9.6l11-10.1c-0.8-1.3-9.9-15.2-31.2-15.2c-26.4,0-39.2,19.6-39.2,40.3
          c0,22.1,13.5,39.9,38.7,39.9c19.6,0,29.1-11.4,31.4-14.7l-10.3-10.6c-1.5,1.9-8.1,10.1-20.4,10.1c-14.1,0-20.9-11.7-20.9-24.5
          C203.4,55.1,210.3,43.1,224.6,43.1z"></path>
        <path d="M35.1,62.9c0-4.6,0.2-10.7,4.4-15c2.4-2.4,6-3.9,9.9-3.9c4.1,0,6.9,1.3,8.7,3.2c3.6,3.3,3.9,9,3.9,16.6v42h18V62.9
          c0-4.6,0.2-10.7,4.4-15c2.4-2.4,5.9-3.9,9.9-3.9c3.9,0,6.7,1.3,8.7,3.2c3.4,3.1,3.7,9.3,3.7,16V128l18-20.3V61.5
          c0-9.3-0.5-19.3-7.1-26.6c-5.1-5.5-12-7.4-17.7-7.4c-15.8,0-22.8,11.4-23.4,12.5c-0.6-1.4-5.9-12.5-20.9-12.5
          c-13.5,0-20.1,10-21.2,11.5l-0.3-8.9h-17v75.6h18V62.9z"></path>
        <path d="M181.9,77l-8.9-9c0,0-5,7.8-14.6,7.8c-10.3,0-14-9-14-16.6c0-8.4,4.4-16.9,14.2-16.9c8.2,0,13.3,6.6,13.4,6.7l0.6,0.6
          l9.3-8.4l-0.5-0.8c-0.6-0.9-7.4-11.3-23.3-11.3C138.5,28.8,129,43.5,129,59c0,16.5,10.1,29.8,28.9,29.8C175,88.8,181.9,77,181.9,77
          z"></path>
        <path d="M439.9,89.9c-0.7,0.3-5.3,2.1-10.2,2.1c-11.4,0-12.5-7.2-12.5-18.2V45.5h23.9V28.9h-23.9V6.4h-18v22.5h-17.1v16.6h17.1v33
          c0,10.9,1.8,17.4,7.7,22.9c5.5,5.2,12.1,6.2,19.3,6.2c10.7,0,17.6-3.4,18.5-3.9L439.9,89.9z"></path>
      </g>
      <g id="last_line" class="last-line">
        <path d="M315.4,142.3c-5.3-5.6-13.1-8.6-24.2-8.6c-20.6,0-30.5,13.1-31.1,13.9l9.6,10.8c1.1-1.1,8.9-9.6,20.4-9.6
          c9,0,15.8,3.8,15.8,15v0.9h-16.8c-8.5,0-18.3,1.6-25.7,9.3c-3.4,3.6-5.9,8.5-5.9,15.8c0,16.6,12.2,24.2,25.4,24.2
          c14.7,0,21.8-8.3,23.7-10.6l0.4,8.5h16.2v-39.7C323.2,159.4,322.8,150.1,315.4,142.3z M300.9,194.6c-3,3-7.3,5.2-14,5.2
          c-6.6,0-11.9-3.3-11.9-10.4c0-11.5,12.2-11.7,20.3-11.7h10.5v5h0.1C305.6,187.3,304.2,191.4,300.9,194.6z"></path>
        <rect x="408" y="112.6" width="18" height="99.3"></rect>
        <path d="M126.4,143.3c-7.8-8.2-17.6-9.6-24-9.6c-25.1,0-37.7,19.6-37.7,40.6c0,21.3,12.2,39.6,38,39.6c17.6,0,27.6-8.9,32.4-14.8
          l-10.1-9.8c-2.1,2.4-9.3,10-21.8,10c-14.3,0-20.1-10.9-20.1-19.3h54C137.2,166.4,136,153.4,126.4,143.3z M83.4,166.4
          c0-4.4,4.2-18.3,18.5-18.3c13.8,0,17.6,13,17.6,18.3H83.4z"></path>
        <path d="M226.3,149.5l-0.3-13.1h-17v75.5h18v-32.4c0-7.1,0.6-15.3,7.2-21.7c6.7-6.5,17.8-5.6,20.7-5.2v-18.8
          C249.1,132.8,234.1,135.7,226.3,149.5z"></path>
        <path d="M378.4,170.6c0,2.8,0,5.5-0.2,8.2c-0.3,6.2-1,11.3-4.4,15.1c-2.8,3.3-7,4.6-10.2,4.6c-4.1,0-7.2-1.3-9.4-3.9
          c-3-3.3-3.2-7.9-3.2-13.5v-44.8h-18v46.2c0,9.8,0.8,18,7,24.6c4.1,4.3,9.8,6.8,17.6,6.8c14.6,0,21.2-10.5,21.7-11.3l0.4,9.2h16.6
          v-75.5h-18v34.3H378.4z"></path>
        <path d="M47.6,198.2c-11.4,0-12.5-7.2-12.5-18.2v-28.3H59v-16.6H35.1v-22.5h-18v22.5H0v16.6h17.1v33c0,10.9,1.8,17.4,7.7,22.9
          c5.5,5.2,12.1,6.2,19.3,6.2c10.7,0,17.6-3.4,18.5-3.9L57.9,196C57.1,196.4,52.5,198.2,47.6,198.2z"></path>
        <path d="M187,198.2c-11.4,0-12.5-7.2-12.5-18.2v-28.3h23.9v-16.6h-23.9v-22.5h-18v22.5h-17.1v16.6h17.1v33
          c0,10.9,1.8,17.4,7.7,22.9c5.5,5.2,12.1,6.2,19.3,6.2c10.7,0,17.6-3.4,18.5-3.9l-4.7-13.9C196.5,196.4,192,198.2,187,198.2z"></path>
        <path d="M481.3,198.2c-11.4,0-12.5-7.2-12.5-18.2v-28.3h23.9v-16.6h-23.9v-22.5h-18v22.5h-17.1v16.6h17.1v33
          c0,10.9,1.8,17.4,7.7,22.9c5.5,5.2,12.1,6.2,19.3,6.2c10.7,0,17.6-3.4,18.5-3.9l-4.7-13.9C490.8,196.4,486.3,198.2,481.3,198.2z"></path>
      </g>
    </svg>